<svg width="30" height="30" viewBox="0 0 30 30" fill="none" xmlns="http://www.w3.org/2000/svg">
<rect x="0.5" y="0.5" width="29" height="29" rx="4.5" stroke="#1A1A1A" style="stroke: #1A1A1A"/>
<path id="favicon-path" d="M21.5019 11.7506C21.1337 10.2772 18.4981 9.24364 15.3391 9.24364C11.405 9.24364 9.45736 10.0573 9.45736 11.5637C9.45736 13.4659 11.6473 13.6528 13.2267 13.6528C14.6221 13.6528 15.5717 13.5758 17.9748 13.5758C22.1415 13.5758 25 14.7083 25 18.6447C25 22.581 22.093 25 14.9322 25C9.79651 25 6.16279 23.3397 5 20.1181L8.74031 19.0075C9.37015 20.4369 11.3663 21.6464 15.2326 21.6464C19.0988 21.6464 20.8818 20.7228 20.8818 19.1395C20.8818 17.4462 18.9535 17.0833 17.1415 17.0833C15.7461 17.0833 14.5833 17.1933 12.7035 17.1933C9.86434 17.1933 5.26163 16.2697 5.26163 11.7286C5.26163 7.71528 9.44767 6 15.3585 6C21.2694 6 24.2151 7.79224 24.9903 10.3542L21.5213 11.7506H21.5019Z" fill="#1A1A1A" style="fill:#1A1A1A"/>
</svg>
