<svg width="157" height="27" viewBox="0 0 157 27" fill="none" xmlns="http://www.w3.org/2000/svg">
<path d="M18.9772 8.17188C18.5538 6.07813 15.5228 4.60938 11.89 4.60938C7.3658 4.60938 5.12597 5.76563 5.12597 7.90626C5.12597 10.6094 7.64438 10.875 9.46076 10.875C11.0654 10.875 12.1575 10.7656 14.921 10.7656C19.7127 10.7656 23 12.375 23 17.9688C23 23.5625 19.657 27 11.422 27C5.51599 27 1.33721 24.6406 0 20.0625L4.30136 18.4844C5.02568 20.5156 7.32122 22.2344 11.7674 22.2344C16.2137 22.2344 18.2641 20.9219 18.2641 18.6719C18.2641 16.2656 16.0465 15.75 13.9627 15.75C12.358 15.75 11.0208 15.9062 8.85901 15.9062C5.59399 15.9062 0.300872 14.5937 0.300872 8.14062C0.300872 2.4375 5.11483 0 11.9123 0C18.7098 0 22.0974 2.54687 22.9889 6.1875L18.9995 8.17188H18.9772Z" fill="white"/>
<path d="M26.0112 26V1H47.6298V5.87693H30.5548V10.9385H47.0913V15.4462H30.5548V20.6461H48V26H26H26.0112Z" fill="white"/>
<path d="M67.9682 16.8125H58.5496V12.4219H72V23.4063C69.2247 25.875 64.9197 27 61.1173 27C53.1411 27 49 23.7031 49 13.5C49 3.29686 53.1192 0 60.5601 0C66.7226 0 70.1316 1.60938 71.4646 7.39063L67.3781 9.29689C66.9629 6.45314 65.3896 4.98437 60.5601 4.98437C55.3373 4.98437 53.4252 7.26562 53.4252 13.5C53.4252 19.7344 55.2062 22.0156 60.9534 22.0156C63.8162 22.0156 66.6461 21.2656 67.9572 20.1719V16.7969L67.9682 16.8125Z" fill="white"/>
<path d="M102.746 26V7.38461L92.8576 26H89.1649L79.1978 7.38461V26H75V1H81.4651L91.1066 18.8769L100.613 1H107V26H102.746Z" fill="white"/>
<path d="M110.011 26V1H131.63V5.87693H114.555V10.9385H131.091V15.4462H114.555V20.6461H132V26H110H110.011Z" fill="white"/>
<path d="M135 26V1H139.429V20.3539H157V26H135Z" fill="white"/>
</svg>
