<svg width="690" height="85" viewBox="0 0 690 85" fill="none" xmlns="http://www.w3.org/2000/svg">
<path d="M83.1333 25.5786C81.2783 19.0375 68.0004 14.449 52.0864 14.449C32.2672 14.449 22.4553 18.0612 22.4553 24.7488C22.4553 33.1936 33.4876 34.0234 41.4446 34.0234C48.4741 34.0234 53.258 33.6818 65.3643 33.6818C86.3551 33.6818 100.756 38.7096 100.756 56.185C100.756 73.6605 86.111 84.3996 50.0362 84.3996C24.1638 84.3996 5.85789 77.0286 0 62.7261L18.8429 57.7959C22.0159 64.1418 32.072 69.5113 51.5495 69.5113C71.027 69.5113 80.0091 65.4109 80.0091 58.3817C80.0091 50.8643 70.2947 49.2535 61.1662 49.2535C54.1367 49.2535 48.2788 49.7416 38.8085 49.7416C24.5055 49.7416 1.31803 45.6412 1.31803 25.481C1.31803 7.66382 22.4064 0.0488281 52.1841 0.0488281C81.9617 0.0488281 96.8017 8.00552 100.707 19.3792L83.2309 25.5786H83.1333Z" fill="black"/>
<path d="M112.324 81.8127V2.48975H206.392V17.9638H132.095V34.0236H204.049V48.3262H132.095V64.8253H208.003V81.8127H112.275H112.324Z" fill="black"/>
<path d="M300.949 52.5239H258.87V38.8072H318.962V73.1235C306.563 80.8361 287.33 84.3507 270.342 84.3507C234.706 84.3507 216.205 74.0509 216.205 42.1753C216.205 10.2997 234.609 0 267.852 0C295.384 0 310.615 5.02786 316.57 23.0891L298.313 29.0444C296.458 20.1602 289.429 15.5717 267.852 15.5717C244.518 15.5717 235.975 22.6985 235.975 42.1753C235.975 61.6521 243.932 68.779 269.61 68.779C282.399 68.779 295.043 66.4359 300.9 63.0189V52.4751L300.949 52.5239Z" fill="black"/>
<path d="M451.936 81.8127V22.7476L408.93 81.8127H392.869L349.521 22.7476V81.8127H331.264V2.48975H359.382L401.314 59.2117L442.661 2.48975H470.437V81.8127H451.936Z" fill="black"/>
<path d="M484.643 81.8127V2.48975H578.711V17.9638H504.413V34.0236H576.367V48.3262H504.413V64.8253H580.321V81.8127H484.594H484.643Z" fill="black"/>
<path d="M591.451 81.8127V2.48975H611.124V63.8979H689.18V81.8127H591.451Z" fill="black"/>
</svg>
