<svg width="26" height="26" viewBox="0 0 26 26" fill="none" xmlns="http://www.w3.org/2000/svg">
<path fill-rule="evenodd" clip-rule="evenodd" d="M9.36216 0.513492C6.83886 1.24447 4.59559 2.71638 2.92536 4.73695C1.25514 6.75751 0.235627 9.23279 0 11.8394H5.96672C6.31263 7.87295 7.46736 4.01843 9.3603 0.511635L9.36216 0.513492ZM5.96672 14.1607H0C0.235134 16.7675 1.25421 19.243 2.92411 21.2639C4.594 23.2848 6.83707 24.7571 9.3603 25.4885C7.46736 21.9817 6.31263 18.1272 5.96672 14.1607ZM12.3511 25.9843C10.089 22.4142 8.70284 18.3636 8.30493 14.1607H17.6932C17.2953 18.3636 15.9092 22.4142 13.647 25.9843C13.2153 26.0052 12.7828 26.0052 12.3511 25.9843ZM16.6397 25.4867C19.1627 24.7554 21.4055 23.2833 23.0754 21.2628C24.7453 19.2422 25.7645 16.7671 26 14.1607H20.0333C19.6874 18.1272 18.5326 21.9817 16.6397 25.4885V25.4867ZM20.0333 11.8394H26C25.7649 9.23269 24.7458 6.75718 23.0759 4.73628C21.406 2.71538 19.1629 1.24305 16.6397 0.511635C18.5327 4.01841 19.6874 7.87294 20.0333 11.8394ZM12.3511 0.0158113C12.7834 -0.00527044 13.2166 -0.00527044 13.6489 0.0158113C15.9104 3.58613 17.2959 7.63666 17.6932 11.8394H8.3068C8.71142 7.61101 10.1005 3.55714 12.3511 0.0158113Z" fill="#335FFF"/>
</svg>
