<svg width="26" height="26" viewBox="0 0 26 26" fill="none" xmlns="http://www.w3.org/2000/svg">
<path d="M24.4497 6.94808C24.6174 6.40111 24.4497 6 23.6568 6H21.0303C20.362 6 20.0566 6.347 19.8889 6.72811C19.8889 6.72811 18.5535 9.9264 16.6611 12.0002C16.0503 12.6036 15.7712 12.7942 15.4382 12.7942C15.2718 12.7942 15.0298 12.6036 15.0298 12.0566V6.94808C15.0298 6.29172 14.837 6 14.2801 6H10.1528C9.73601 6 9.48449 6.30348 9.48449 6.59284C9.48449 7.21391 10.4307 7.35742 10.5277 9.10771V12.9047C10.5277 13.7363 10.3756 13.8881 10.0402 13.8881C9.15033 13.8881 6.9849 10.678 5.69977 7.00336C5.44945 6.28936 5.19673 6.00118 4.52602 6.00118H1.90067C1.14971 6.00118 1 6.34818 1 6.72929C1 7.41388 1.88989 10.8015 5.14523 15.282C7.31546 18.3415 10.3708 20 13.1542 20C14.8226 20 15.0286 19.6318 15.0286 18.9966V16.6841C15.0286 15.9477 15.1879 15.7995 15.7161 15.7995C16.1042 15.7995 16.7725 15.9924 18.3307 17.4663C20.1105 19.2142 20.4051 19.9988 21.4052 19.9988H24.0305C24.7803 19.9988 25.1552 19.6306 24.9396 18.9037C24.7036 18.1803 23.8533 17.1275 22.725 15.8819C22.1118 15.1714 21.1956 14.4068 20.9165 14.0245C20.5273 13.5317 20.6398 13.3141 20.9165 12.8765C20.9177 12.8777 24.1168 8.45253 24.4497 6.94808Z" fill="#335FFF"/>
</svg>
