<svg width="26" height="26" viewBox="0 0 26 26" fill="none" xmlns="http://www.w3.org/2000/svg">
<g clip-path="url(#clip0_221_7496)">
<path d="M4.60689 0C2.05483 0 0 2.05483 0 4.60689V21.3931C0 23.9452 2.05483 26 4.60689 26H16.9618L26 13.0033L16.9618 2.6e-05L4.60689 0ZM11.5253 4.74664H14.4609C14.6411 4.74664 14.7444 4.81255 14.7444 4.96764V21.1461C14.7444 21.2562 14.6926 21.3224 14.5381 21.3224H12.9415C12.8392 21.3224 12.7619 21.2341 12.7619 21.1681V15.1783H11.4733L7.89425 21.1681C7.84287 21.2783 7.74002 21.3224 7.5855 21.3224H5.75736C5.55196 21.3224 5.42316 21.1681 5.55181 20.969L9.49081 14.8687C7.37994 14.0731 6.19531 12.4597 6.19531 10.2716C6.19531 6.62475 8.64167 4.74661 11.5253 4.74661L11.5253 4.74664ZM11.4481 6.16039C9.87743 6.16039 8.33219 7.28754 8.33219 10.0506C8.33219 12.7029 9.98031 13.7638 11.6797 13.7638H12.7619V6.16039H11.4481Z" fill="#335FFF"/>
</g>
<defs>
<clipPath id="clip0_221_7496">
<rect width="26" height="26" fill="white"/>
</clipPath>
</defs>
</svg>
