<?xml version="1.0" encoding="utf-8"?><svg viewBox="0 0 157 35" xmlns="http://www.w3.org/2000/svg" xmlns:xlink="http://www.w3.org/1999/xlink"><style>:root>svg{display:none}:root>svg:target{display:block}</style><svg viewBox="0 0 26 8" id="arrow" xmlns="http://www.w3.org/2000/svg"><path d="M.646 3.646a.5.5 0 0 0 0 .708l3.182 3.182a.5.5 0 1 0 .708-.708L1.707 4l2.829-2.828a.5.5 0 1 0-.708-.708L.646 3.646ZM26 3.5H1v1h25v-1Z"/></svg><svg viewBox="0 0 35 35" id="arrow-circle-light" xmlns="http://www.w3.org/2000/svg"><path d="M17.5 32.083c8.053 0 14.583-6.529 14.583-14.583S25.553 2.917 17.499 2.917C9.445 2.917 2.916 9.446 2.916 17.5s6.53 14.583 14.583 14.583ZM12.396 17.5h8.75"/><path d="m18.229 21.875 4.375-4.375-4.375-4.375"/></svg><svg viewBox="0 0 24 24" id="close" xmlns="http://www.w3.org/2000/svg"><path d="M6 18 18 6m0 12L6 6"/></svg><svg viewBox="0 0 30 30" id="favicon" xmlns="http://www.w3.org/2000/svg"><rect x=".5" y=".5" width="29" height="29" rx="4.5" style="stroke:#1a1a1a"/><path d="M21.502 11.75c-.368-1.473-3.004-2.506-6.163-2.506-3.934 0-5.882.813-5.882 2.32 0 1.902 2.19 2.089 3.77 2.089 1.395 0 2.345-.077 4.748-.077 4.166 0 7.025 1.132 7.025 5.069C25 22.58 22.093 25 14.932 25 9.797 25 6.162 23.34 5 20.118l3.74-1.11c.63 1.429 2.626 2.638 6.493 2.638 3.866 0 5.649-.923 5.649-2.506 0-1.694-1.929-2.057-3.74-2.057-1.396 0-2.559.11-4.438.11-2.84 0-7.442-.923-7.442-5.464C5.262 7.715 9.448 6 15.358 6c5.911 0 8.857 1.792 9.632 4.354l-3.469 1.397h-.02Z" style="fill:#1a1a1a"/></svg><svg viewBox="0 0 157 27" id="logo" xmlns="http://www.w3.org/2000/svg"><path d="M18.977 8.172c-.423-2.094-3.454-3.563-7.087-3.563-4.524 0-6.764 1.157-6.764 3.297 0 2.703 2.518 2.969 4.335 2.969 1.604 0 2.697-.11 5.46-.11 4.792 0 8.079 1.61 8.079 7.204C23 23.562 19.657 27 11.422 27 5.516 27 1.337 24.64 0 20.062l4.301-1.578c.725 2.032 3.02 3.75 7.466 3.75 4.447 0 6.497-1.312 6.497-3.562 0-2.406-2.217-2.922-4.301-2.922-1.605 0-2.942.156-5.104.156-3.265 0-8.558-1.312-8.558-7.765C.3 2.437 5.115 0 11.912 0 18.71 0 22.097 2.547 22.99 6.188L19 8.172h-.022ZM26.011 26V1H47.63v4.877H30.555v5.061H47.09v4.508H30.555v5.2H48V26H26h.011Zm41.957-9.187H58.55v-4.391H72v10.984C69.225 25.875 64.92 27 61.117 27 53.141 27 49 23.703 49 13.5S53.12 0 60.56 0c6.163 0 9.572 1.61 10.905 7.39l-4.087 1.907c-.415-2.844-1.988-4.313-6.818-4.313-5.223 0-7.135 2.282-7.135 8.516s1.781 8.516 7.528 8.516c2.863 0 5.693-.75 7.004-1.844v-3.375l.011.015ZM102.746 26V7.385L92.858 26h-3.693L79.198 7.385V26H75V1h6.465l9.642 17.877L100.613 1H107v25h-4.254Zm7.265 0V1h21.619v4.877h-17.075v5.061h16.536v4.508h-16.536v5.2H132V26h-22 .011ZM135 26V1h4.429v19.354H157V26h-22Z"/></svg><svg viewBox="0 0 101 12" id="logo-thin" xmlns="http://www.w3.org/2000/svg"><path d="M12.377 3.632c-.277-.93-2.254-1.583-4.623-1.583-2.95 0-4.411.514-4.411 1.465 0 1.201 1.642 1.32 2.827 1.32 1.047 0 1.759-.05 3.561-.05C12.856 4.785 15 5.5 15 7.987 15 10.472 12.82 12 7.45 12 3.596 12 .871 10.951 0 8.917l2.805-.702c.473.903 1.97 1.667 4.87 1.667 2.9 0 4.236-.583 4.236-1.583C11.911 7.229 10.465 7 9.106 7c-1.046 0-1.918.07-3.328.07-2.13 0-5.582-.584-5.582-3.452C.196 1.083 3.336 0 7.77 0s6.642 1.132 7.224 2.75l-2.602.882h-.014ZM16.007 11V0h13.757v2.146H18.898v2.227h10.524v1.983H18.898v2.288H30V11H16h.007ZM44.37 7.472h-6.142V5.521H47v4.882C45.19 11.5 42.382 12 39.903 12 34.7 12 32 10.535 32 6s2.687-6 7.54-6c4.018 0 6.242.715 7.11 3.285l-2.664.847c-.271-1.264-1.297-1.917-4.447-1.917-3.406 0-4.653 1.014-4.653 3.785 0 2.77 1.161 3.785 4.91 3.785 1.867 0 3.712-.334 4.567-.82v-1.5l.008.007ZM66.341 11V2.81L60.161 11h-2.308l-6.23-8.19V11H49V0h4.04l6.027 7.866L65.008 0H69v11h-2.659Zm4.666 0V0h13.757v2.146H73.9v2.227h10.523v1.983H73.899v2.288H85V11H71h.007ZM87 11V0h2.818v8.516H101V11H87Z"/></svg><svg viewBox="0 0 26 26" id="site" xmlns="http://www.w3.org/2000/svg"><path fill-rule="evenodd" clip-rule="evenodd" d="M9.362.513a13.067 13.067 0 0 0-6.437 4.224A12.982 12.982 0 0 0 0 11.839h5.967A29.184 29.184 0 0 1 9.36.512l.002.001ZM5.967 14.161H0a12.982 12.982 0 0 0 2.924 7.103 13.067 13.067 0 0 0 6.436 4.224 29.184 29.184 0 0 1-3.393-11.327Zm6.384 11.823a26.812 26.812 0 0 1-4.046-11.823h9.388a26.81 26.81 0 0 1-4.046 11.823 13.4 13.4 0 0 1-1.296 0Zm4.289-.497a13.068 13.068 0 0 0 6.435-4.224A12.982 12.982 0 0 0 26 14.16h-5.967a29.185 29.185 0 0 1-3.393 11.327v-.001Zm3.393-13.648H26a12.982 12.982 0 0 0-2.924-7.103A13.068 13.068 0 0 0 16.64.512a29.183 29.183 0 0 1 3.393 11.327ZM12.351.016a13.38 13.38 0 0 1 1.298 0 26.81 26.81 0 0 1 4.044 11.823H8.307A26.804 26.804 0 0 1 12.35.016Z"/></svg><svg viewBox="0 0 26 26" id="telegram" xmlns="http://www.w3.org/2000/svg"><path d="M23.784 2.187s2.405-.917 2.204 1.31c-.066.917-.667 4.127-1.135 7.598L23.249 21.38s-.133 1.506-1.336 1.769c-1.202.261-3.006-.917-3.34-1.18-.268-.196-5.011-3.144-6.681-4.585-.468-.393-1.003-1.179.066-2.096l7.016-6.55c.801-.787 1.603-2.621-1.738-.394l-9.353 6.223s-1.07.655-3.073.066l-4.344-1.31s-1.603-.983 1.136-1.965c6.682-3.079 14.9-6.222 22.182-9.17Z"/></svg><svg viewBox="0 0 26 26" id="vkontakte" xmlns="http://www.w3.org/2000/svg"><path d="M24.45 6.948c.167-.547 0-.948-.793-.948H21.03c-.668 0-.973.347-1.141.728 0 0-1.335 3.198-3.228 5.272-.61.604-.89.794-1.223.794-.166 0-.408-.19-.408-.737V6.948c0-.656-.193-.948-.75-.948h-4.127c-.417 0-.669.303-.669.593 0 .62.947.764 1.044 2.515v3.797c0 .831-.152.983-.488.983-.89 0-3.055-3.21-4.34-6.885-.25-.714-.503-1.002-1.174-1.002H1.901c-.751 0-.901.347-.901.728 0 .685.89 4.073 4.145 8.553 2.17 3.06 5.226 4.718 8.01 4.718 1.668 0 1.874-.368 1.874-1.003v-2.313c0-.736.159-.885.687-.885.388 0 1.057.193 2.615 1.667C20.11 19.214 20.405 20 21.405 20h2.625c.75 0 1.125-.368.91-1.095-.236-.724-1.087-1.776-2.215-3.022-.613-.71-1.53-1.475-1.809-1.857-.389-.493-.276-.71 0-1.149.002.002 3.2-4.423 3.534-5.928Z"/></svg><svg viewBox="0 0 26 26" id="yandex" xmlns="http://www.w3.org/2000/svg"><g clip-path="url(#ja)"><path d="M4.607 0A4.597 4.597 0 0 0 0 4.607v16.786A4.597 4.597 0 0 0 4.607 26h12.355L26 13.003 16.962 0H4.607Zm6.918 4.747h2.936c.18 0 .283.066.283.22v16.18c0 .11-.051.175-.206.175h-1.597c-.102 0-.18-.088-.18-.154v-5.99h-1.288l-3.579 5.99c-.051.11-.154.154-.309.154H5.757c-.205 0-.334-.154-.205-.353l3.939-6.1c-2.111-.796-3.296-2.41-3.296-4.597 0-3.647 2.447-5.525 5.33-5.525Zm-.077 1.413c-1.57 0-3.116 1.128-3.116 3.89 0 2.653 1.648 3.714 3.348 3.714h1.082V6.16h-1.314Z"/></g><defs><clipPath id="ja"><path d="M0 0h26v26H0z"/></clipPath></defs></svg></svg>