<?xml version="1.0" encoding="utf-8"?><svg viewBox="0 0 157 35" xmlns="http://www.w3.org/2000/svg" xmlns:xlink="http://www.w3.org/1999/xlink"><style>:root>svg{display:none}:root>svg:target{display:block}</style><svg viewBox="0 0 26 8" id="arrow" xmlns="http://www.w3.org/2000/svg"><path d="M.646 3.646a.5.5 0 0 0 0 .708l3.182 3.182a.5.5 0 1 0 .708-.708L1.707 4l2.829-2.828a.5.5 0 1 0-.708-.708L.646 3.646ZM26 3.5H1v1h25v-1Z"/></svg><svg viewBox="0 0 35 35" id="arrow-circle-light" xmlns="http://www.w3.org/2000/svg"><path d="M17.5 32.083c8.053 0 14.583-6.529 14.583-14.583S25.553 2.917 17.499 2.917C9.445 2.917 2.916 9.446 2.916 17.5s6.53 14.583 14.583 14.583ZM12.396 17.5h8.75"/><path d="m18.229 21.875 4.375-4.375-4.375-4.375"/></svg><svg viewBox="0 0 24 24" id="close" xmlns="http://www.w3.org/2000/svg"><path d="M6 18 18 6m0 12L6 6"/></svg><svg viewBox="0 0 157 27" id="logo" xmlns="http://www.w3.org/2000/svg"><path d="M18.977 8.172c-.423-2.094-3.454-3.563-7.087-3.563-4.524 0-6.764 1.157-6.764 3.297 0 2.703 2.518 2.969 4.335 2.969 1.604 0 2.697-.11 5.46-.11 4.792 0 8.079 1.61 8.079 7.204C23 23.562 19.657 27 11.422 27 5.516 27 1.337 24.64 0 20.062l4.301-1.578c.725 2.032 3.02 3.75 7.466 3.75 4.447 0 6.497-1.312 6.497-3.562 0-2.406-2.217-2.922-4.301-2.922-1.605 0-2.942.156-5.104.156-3.265 0-8.558-1.312-8.558-7.765C.3 2.437 5.115 0 11.912 0 18.71 0 22.097 2.547 22.99 6.188L19 8.172h-.022ZM26.011 26V1H47.63v4.877H30.555v5.061H47.09v4.508H30.555v5.2H48V26H26h.011Zm41.957-9.187H58.55v-4.391H72v10.984C69.225 25.875 64.92 27 61.117 27 53.141 27 49 23.703 49 13.5S53.12 0 60.56 0c6.163 0 9.572 1.61 10.905 7.39l-4.087 1.907c-.415-2.844-1.988-4.313-6.818-4.313-5.223 0-7.135 2.282-7.135 8.516s1.781 8.516 7.528 8.516c2.863 0 5.693-.75 7.004-1.844v-3.375l.011.015ZM102.746 26V7.385L92.858 26h-3.693L79.198 7.385V26H75V1h6.465l9.642 17.877L100.613 1H107v25h-4.254Zm7.265 0V1h21.619v4.877h-17.075v5.061h16.536v4.508h-16.536v5.2H132V26h-22 .011ZM135 26V1h4.429v19.354H157V26h-22Z"/></svg></svg>