<?xml version="1.0" encoding="utf-8"?><svg viewBox="0 0 690 85" xmlns="http://www.w3.org/2000/svg" xmlns:xlink="http://www.w3.org/1999/xlink"><style>:root>svg{display:none}:root>svg:target{display:block}</style><svg viewBox="0 0 26 8" id="arrow" xmlns="http://www.w3.org/2000/svg"><path d="M.646 3.646a.5.5 0 0 0 0 .708l3.182 3.182a.5.5 0 1 0 .708-.708L1.707 4l2.829-2.828a.5.5 0 1 0-.708-.708L.646 3.646ZM26 3.5H1v1h25v-1Z"/></svg><svg viewBox="0 0 35 35" id="arrow-circle-light" xmlns="http://www.w3.org/2000/svg"><path d="M17.5 32.083c8.053 0 14.583-6.529 14.583-14.583S25.553 2.917 17.499 2.917C9.445 2.917 2.916 9.446 2.916 17.5s6.53 14.583 14.583 14.583ZM12.396 17.5h8.75"/><path d="m18.229 21.875 4.375-4.375-4.375-4.375"/></svg><svg viewBox="0 0 24 24" id="close" xmlns="http://www.w3.org/2000/svg"><path d="M6 18 18 6m0 12L6 6"/></svg><svg viewBox="0 0 30 30" id="favicon" xmlns="http://www.w3.org/2000/svg"><rect x=".5" y=".5" width="29" height="29" rx="4.5" style="stroke:#1a1a1a"/><path d="M21.502 11.75c-.368-1.473-3.004-2.506-6.163-2.506-3.934 0-5.882.813-5.882 2.32 0 1.902 2.19 2.089 3.77 2.089 1.395 0 2.345-.077 4.748-.077 4.166 0 7.025 1.132 7.025 5.069C25 22.58 22.093 25 14.932 25 9.797 25 6.162 23.34 5 20.118l3.74-1.11c.63 1.429 2.626 2.638 6.493 2.638 3.866 0 5.649-.923 5.649-2.506 0-1.694-1.929-2.057-3.74-2.057-1.396 0-2.559.11-4.438.11-2.84 0-7.442-.923-7.442-5.464C5.262 7.715 9.448 6 15.358 6c5.911 0 8.857 1.792 9.632 4.354l-3.469 1.397h-.02Z" style="fill:#1a1a1a"/></svg><svg viewBox="0 0 690 85" id="logo" xmlns="http://www.w3.org/2000/svg"><path d="M83.133 25.579C81.278 19.038 68 14.449 52.086 14.449c-19.819 0-29.63 3.612-29.63 10.3 0 8.445 11.032 9.274 18.989 9.274 7.03 0 11.813-.341 23.92-.341 20.99 0 35.391 5.028 35.391 22.503S86.111 84.4 50.036 84.4C24.164 84.4 5.858 77.029 0 62.726l18.843-4.93C22.016 64.142 32.072 69.51 51.55 69.51c19.477 0 28.46-4.1 28.46-11.13 0-7.517-9.715-9.127-18.844-9.127-7.03 0-12.887.488-22.357.488-14.303 0-37.491-4.1-37.491-24.261C1.318 7.664 22.406.049 52.184.049s44.618 7.957 48.523 19.33l-17.476 6.2h-.098Zm29.191 56.234V2.49h94.068v15.474h-74.297v16.06h71.954v14.302h-71.954v16.5h75.908v16.987h-95.728.049Zm188.625-29.289H258.87V38.807h60.092v34.317c-12.399 7.712-31.632 11.227-48.62 11.227-35.636 0-54.137-10.3-54.137-42.176C216.205 10.3 234.609 0 267.852 0c27.532 0 42.763 5.028 48.718 23.09l-18.257 5.954c-1.855-8.884-8.884-13.472-30.461-13.472-23.334 0-31.877 7.127-31.877 26.603 0 19.477 7.957 26.604 33.635 26.604 12.789 0 25.433-2.343 31.29-5.76V52.475l.049.049Zm150.987 29.289V22.748L408.93 81.813h-16.061l-43.348-59.065v59.065h-18.257V2.49h28.118l41.932 56.722L442.661 2.49h27.776v79.323h-18.501Zm32.707 0V2.49h94.068v15.474h-74.298v16.06h71.954v14.302h-71.954v16.5h75.908v16.987h-95.727.049Zm106.808 0V2.49h19.673v61.408h78.056v17.915h-97.729Z"/></svg><svg viewBox="0 0 26 26" id="site" xmlns="http://www.w3.org/2000/svg"><path fill-rule="evenodd" clip-rule="evenodd" d="M9.362.513a13.067 13.067 0 0 0-6.437 4.224A12.982 12.982 0 0 0 0 11.839h5.967A29.184 29.184 0 0 1 9.36.512l.002.001ZM5.967 14.161H0a12.982 12.982 0 0 0 2.924 7.103 13.067 13.067 0 0 0 6.436 4.224 29.184 29.184 0 0 1-3.393-11.327Zm6.384 11.823a26.812 26.812 0 0 1-4.046-11.823h9.388a26.81 26.81 0 0 1-4.046 11.823 13.4 13.4 0 0 1-1.296 0Zm4.289-.497a13.068 13.068 0 0 0 6.435-4.224A12.982 12.982 0 0 0 26 14.16h-5.967a29.185 29.185 0 0 1-3.393 11.327v-.001Zm3.393-13.648H26a12.982 12.982 0 0 0-2.924-7.103A13.068 13.068 0 0 0 16.64.512a29.183 29.183 0 0 1 3.393 11.327ZM12.351.016a13.38 13.38 0 0 1 1.298 0 26.81 26.81 0 0 1 4.044 11.823H8.307A26.804 26.804 0 0 1 12.35.016Z"/></svg><svg viewBox="0 0 26 26" id="telegram" xmlns="http://www.w3.org/2000/svg"><path d="M23.784 2.187s2.405-.917 2.204 1.31c-.066.917-.667 4.127-1.135 7.598L23.249 21.38s-.133 1.506-1.336 1.769c-1.202.261-3.006-.917-3.34-1.18-.268-.196-5.011-3.144-6.681-4.585-.468-.393-1.003-1.179.066-2.096l7.016-6.55c.801-.787 1.603-2.621-1.738-.394l-9.353 6.223s-1.07.655-3.073.066l-4.344-1.31s-1.603-.983 1.136-1.965c6.682-3.079 14.9-6.222 22.182-9.17Z"/></svg><svg viewBox="0 0 26 26" id="vkontakte" xmlns="http://www.w3.org/2000/svg"><path d="M24.45 6.948c.167-.547 0-.948-.793-.948H21.03c-.668 0-.973.347-1.141.728 0 0-1.335 3.198-3.228 5.272-.61.604-.89.794-1.223.794-.166 0-.408-.19-.408-.737V6.948c0-.656-.193-.948-.75-.948h-4.127c-.417 0-.669.303-.669.593 0 .62.947.764 1.044 2.515v3.797c0 .831-.152.983-.488.983-.89 0-3.055-3.21-4.34-6.885-.25-.714-.503-1.002-1.174-1.002H1.901c-.751 0-.901.347-.901.728 0 .685.89 4.073 4.145 8.553 2.17 3.06 5.226 4.718 8.01 4.718 1.668 0 1.874-.368 1.874-1.003v-2.313c0-.736.159-.885.687-.885.388 0 1.057.193 2.615 1.667C20.11 19.214 20.405 20 21.405 20h2.625c.75 0 1.125-.368.91-1.095-.236-.724-1.087-1.776-2.215-3.022-.613-.71-1.53-1.475-1.809-1.857-.389-.493-.276-.71 0-1.149.002.002 3.2-4.423 3.534-5.928Z"/></svg><svg viewBox="0 0 26 26" id="yandex" xmlns="http://www.w3.org/2000/svg"><g clip-path="url(#ia)"><path d="M4.607 0A4.597 4.597 0 0 0 0 4.607v16.786A4.597 4.597 0 0 0 4.607 26h12.355L26 13.003 16.962 0H4.607Zm6.918 4.747h2.936c.18 0 .283.066.283.22v16.18c0 .11-.051.175-.206.175h-1.597c-.102 0-.18-.088-.18-.154v-5.99h-1.288l-3.579 5.99c-.051.11-.154.154-.309.154H5.757c-.205 0-.334-.154-.205-.353l3.939-6.1c-2.111-.796-3.296-2.41-3.296-4.597 0-3.647 2.447-5.525 5.33-5.525Zm-.077 1.413c-1.57 0-3.116 1.128-3.116 3.89 0 2.653 1.648 3.714 3.348 3.714h1.082V6.16h-1.314Z"/></g><defs><clipPath id="ia"><path d="M0 0h26v26H0z"/></clipPath></defs></svg></svg>