<svg width="101" height="12" viewBox="0 0 101 12" fill="none" xmlns="http://www.w3.org/2000/svg">
<path d="M12.3765 3.63195C12.1003 2.70139 10.1235 2.04861 7.75436 2.04861C4.80378 2.04861 3.34302 2.5625 3.34302 3.51389C3.34302 4.71528 4.98547 4.83333 6.17006 4.83333C7.21657 4.83333 7.92878 4.78473 9.7311 4.78473C12.8561 4.78473 15 5.5 15 7.98611C15 10.4722 12.8198 12 7.44913 12C3.59738 12 0.872093 10.9514 0 8.91667L2.80523 8.21528C3.27762 9.11806 4.77471 9.88194 7.67442 9.88194C10.5741 9.88194 11.9113 9.29861 11.9113 8.29861C11.9113 7.22917 10.4651 7 9.1061 7C8.05959 7 7.1875 7.06944 5.77762 7.06944C3.64826 7.06944 0.196221 6.48611 0.196221 3.61805C0.196221 1.08333 3.33576 0 7.7689 0C12.202 0 14.4113 1.13194 14.9927 2.75L12.391 3.63195H12.3765Z" fill="#F3F6FF"/>
<path d="M16.0071 11V0H29.7644V2.14585H18.8985V4.37292H29.4217V6.35631H18.8985V8.6443H30V11H16H16.0071Z" fill="#F3F6FF"/>
<path d="M44.3705 7.47223H38.228V5.52084H47V10.4028C45.19 11.5 42.3824 12 39.9026 12C34.7007 12 32 10.5347 32 6C32 1.46527 34.6865 0 39.5392 0C43.5582 0 45.7815 0.71528 46.6508 3.28473L43.9857 4.13195C43.715 2.86806 42.6888 2.21528 39.5392 2.21528C36.133 2.21528 34.886 3.22916 34.886 6C34.886 8.77083 36.0475 9.78473 39.7957 9.78473C41.6627 9.78473 43.5083 9.45139 44.3634 8.96528V7.46528L44.3705 7.47223Z" fill="#F3F6FF"/>
<path d="M66.3413 11V2.80923L60.161 11H57.853L51.6236 2.80923V11H49V0H53.0407L59.0666 7.86584L65.0084 0H69V11H66.3413Z" fill="#F3F6FF"/>
<path d="M71.0071 11V0H84.7644V2.14585H73.8985V4.37292H84.4217V6.35631H73.8985V8.6443H85V11H71H71.0071Z" fill="#F3F6FF"/>
<path d="M87 11V0H89.8182V8.51569H101V11H87Z" fill="#F3F6FF"/>
</svg>
