<svg width="26" height="26" viewBox="0 0 26 26" fill="none" xmlns="http://www.w3.org/2000/svg">
<path d="M23.7842 2.18704C23.7842 2.18704 26.1892 1.27003 25.988 3.49689C25.9218 4.4139 25.3207 7.62374 24.8527 11.0951L23.2494 21.3789C23.2494 21.3789 23.1156 22.8855 21.9128 23.1476C20.7106 23.4091 18.9067 22.2306 18.5724 21.9685C18.305 21.7718 13.5618 18.824 11.8916 17.3834C11.4236 16.99 10.8887 16.2043 11.9584 15.2873L18.9736 8.73687C19.7752 7.95 20.5769 6.11597 17.2365 8.34343L7.88259 14.5658C7.88259 14.5658 6.81348 15.2213 4.80961 14.6318L0.466329 13.3213C0.466329 13.3213 -1.13702 12.3389 1.60229 11.3566C8.28374 8.27806 16.5023 5.1348 23.7842 2.18704Z" fill="#335FFF"/>
</svg>
